<svg id="Layer_1" data-name="Layer 1" xmlns="http://www.w3.org/2000/svg" viewBox="0 0 715.94 211.02"><title>WeChat Pay logo - Brandlogos.net</title><g id="页面-1"><g id="画板"><g id="编组"><path id="形状结合" d="M710.2,429.86l8.93,24.1c.93,2.7,1.94,5.9,2.61,8.34h.17c.76-2.44,1.6-5.56,2.61-8.51l8.09-23.93h7.84l-11.13,29.08c-5.31,14-8.93,21.16-14,25.54a21.48,21.48,0,0,1-7.57,4.41c-.61-1.09-3.39-5.85-3.39-5.85a19.62,19.62,0,0,0,6.49-3.62,22.5,22.5,0,0,0,6.24-8.26,5.31,5.31,0,0,0,.59-1.77,6.45,6.45,0,0,0-.51-1.94l-15.09-37.59Zm-170.81-.93c12.47,0,15.51,8.51,15.51,16.69v15.26a57.4,57.4,0,0,0,.67,9.78h-6.74l-.59-5.14H548a15.19,15.19,0,0,1-12.47,6.07c-8.26,0-12.47-5.82-12.47-11.72,0-9.86,8.76-15.25,24.53-15.17v-.84c0-3.37-.93-9.44-9.27-9.44a20.61,20.61,0,0,0-9.77,2.52L526,432.56A25.3,25.3,0,0,1,539.39,428.94Zm138.79,0c12.47,0,15.51,8.51,15.51,16.69v15.26a57.41,57.41,0,0,0,.67,9.78h-6.74l-.59-5.14h-.25a15.19,15.19,0,0,1-12.47,6.07c-8.26,0-12.47-5.82-12.47-11.72,0-9.86,8.77-15.25,24.53-15.17v-.84c0-3.37-.93-9.44-9.27-9.44a20.6,20.6,0,0,0-9.77,2.52l-2.53-4.38A25.3,25.3,0,0,1,678.18,428.94Zm-226.09-16c7.08,0,11.55,1.52,13.48,2.53,0,0-2.24,3.9-3.16,5.38a28,28,0,0,0-10.07-1.75c-13.32,0-22.17,8.51-22.17,23.43,0,13.91,8,22.84,21.83,22.84a31.51,31.51,0,0,0,10.48-1.73c.67,1.17,3,5.19,3,5.19-2.7,1.35-8.09,2.7-15,2.7-16,0-28.07-10.11-28.07-28.74C422.42,425,434.47,412.92,452.09,412.92Zm-55.11,16c13.32,0,16.86,11.72,16.86,19.22a28,28,0,0,1-.25,3.46H384.93c.17,10,6.57,14.16,14,14.16a27.78,27.78,0,0,0,9.78-1.51c.68,1.12,2.78,4.71,2.78,4.71a33,33,0,0,1-13.57,2.53c-12.56,0-20.06-8.26-20.06-20.57S385.09,428.94,397,428.94Zm181-10.79v11.72H588.6v5.65H578v22c0,5.06,1.43,7.92,5.56,7.92.61,0,1.16,0,1.67-.07.87,1.47,3,5.12,3,5.12a18.19,18.19,0,0,1-6.57,1c-3.46,0-6.24-1.1-8-3.12-2.11-2.19-2.87-5.81-2.87-10.62V435.51h-6.32v-5.65h6.32V418.15Zm56.21-4.72c7.25,0,12.56,1.69,15.93,4.72,3.12,2.7,5,6.83,5,11.88s-1.52,9.19-4.38,12.14c-3.88,4.13-10.2,6.24-17.36,6.24a25.3,25.3,0,0,1-5.9-.51v22.76h-7.33V414.52A85.05,85.05,0,0,1,634.19,413.43Zm-321.57.42,6.74,28.74c1.69,7.08,3.2,14.16,4.21,19.64h.17c.93-5.65,2.7-12.39,4.64-19.72L336,413.85h7.67l6.91,28.82c1.6,6.74,3.12,13.48,4,19.47h.17c1.18-6.24,2.78-12.56,4.55-19.64l7.5-28.66h7.5l-16.1,56.81h-7.67l-7.16-29.58a171.14,171.14,0,0,1-3.71-18.54h-.17A177.33,177.33,0,0,1,335,441.07L327,470.65h-7.67l-14.41-56.81Zm171.74-3v25.45h.17a13.77,13.77,0,0,1,5.31-5.23,15.27,15.27,0,0,1,7.59-2.11c5.48,0,14.24,3.37,14.24,17.45v24.27h-7.42V447.23c0-6.57-2.44-12.14-9.44-12.14a10.65,10.65,0,0,0-9.95,7.42,9,9,0,0,0-.51,3.54v24.61h-7.42V410.82ZM530.45,459c0,4.8,3.2,7.08,7,7.08a10.15,10.15,0,0,0,9.86-6.83,7.74,7.74,0,0,0,.42-2.36v-7.08C539.64,449.67,530.45,451.1,530.45,459Zm138.79,0c0,4.8,3.2,7.08,7,7.08a10.15,10.15,0,0,0,9.86-6.83,7.74,7.74,0,0,0,.42-2.36v-7.08C678.43,449.67,669.24,451.1,669.24,459ZM396.39,434.25c-7.5,0-10.79,6.91-11.38,12.05h21.66C406.75,441.58,404.73,434.25,396.39,434.25Zm238-15a30.8,30.8,0,0,0-6.91.59v22.08a24.65,24.65,0,0,0,6.07.59c8.85,0,14.24-4.3,14.24-12.14C647.76,422.87,642.45,419.24,634.36,419.24ZM584.45,291.18V306.1h44.14v7.75H584.45v16.2h35.63s-4.57,23.28-31.27,42.88c10.8,5.69,25,9.72,42.38,12.44,0,0-2.81,5-5.21,8.85-19-3.3-33.81-9.08-45.43-15.86-11.71,6.95-26.85,13-46.43,16.4-1.36-2-5.08-8.6-5.08-8.6,17.75-2.78,32.36-7.27,43.28-13.13-26.84-19.25-32-43-32-43h35.53v-16.2H530V306.1h45.85V291.18ZM323,319.7l6.88,3.65c-3.27,7.77-6.31,13.06-7.15,14.72v56.38H315V350.25c-4.44,6-7,9.07-8.34,10.54l-4.37-7.57C310.57,344.43,317.91,332.36,323,319.7Zm341.11-28.21,9,2-.28.74c-3.66,9.57-7.09,17.72-10.19,24.22v76H654V334.82a161.16,161.16,0,0,1-10.27,14.75L639,341.25c10.14-13.8,18.67-30.56,24.88-49.18Zm-226.36,0,8.15,2s-5.19,16.35-9.16,25l0,76h-8.61V335.12c-3.45,6.5-5.76,10.77-8.68,14.59l-4.66-8.07C426.86,326.4,437.72,291.47,437.72,291.47Zm-54.81-.41,7.75,1.55-.18.7c-1.6,6.13-3.37,12.15-5.26,17.91h23.19v7.33h-5.59c-1.44,20.81-5.13,36.93-10.95,47.93,4.62,9,13.52,17.42,16,19.7-.56,1.07-4.44,7.71-4.44,7.71s-12.89-13.2-15.81-19.59c-3.28,5.51-9.33,12.65-17.53,20h0L366,387s11.22-9.31,17.58-20.55a125.69,125.69,0,0,1-7.81-32.27c-1.36,2.39-2.1,3.68-3.47,5.73,0,0-3.62-6.29-4.36-7.47,6.51-11.45,11.39-24.94,14.87-40.71h0Zm344.12.88v24.4H742v8.18H727v53.12A15.35,15.35,0,0,1,711.7,393h-10v-9h10a6.39,6.39,0,0,0,6.38-6.38V324.52H670.25v-8.18h47.82v-24.4Zm-214.4,64.91v35.69H452V356.85Zm-149-4.26v19.71c1.45-1.23,5.89-5.13,7.38-6.46l3.57,6.18-16.36,13.81s-3.46-6-4.16-7.11c1-1.07,2.25-3.28,2.25-7.5V359.91H341.47c0,16.86-.68,23-11.92,31.75,0,0-2.71-4.78-3.92-6.78,9.66-7.63,8.51-18.06,8.51-32.29Zm140.81,12H460.61v20.61h43.84ZM608,337.7H552.6c3.17,6.6,11,19.34,28,30.42C597.44,356.87,605.06,344,608,337.7Zm79.67-.53L703.31,362l-8.15,4.45-14.64-25ZM395.5,318.55H382.74c-.13.52-1.33,3.54-1.6,4.13,1.59,15.26,3.94,27,7,34.81,3.79-9.1,6.27-22.18,7.36-38.94Zm118,21.24v7.33H451.15v-7.33Zm-146-3.84v7.33h-35V336Zm146-13.22v7.33H451.15v-7.33ZM354.26,292.89v26.87h7.92V300.56h6.9v26.09H331.7V301H339v18.76h7.91V292.89Zm-30.89-1.78,6.76,4.43a101.69,101.69,0,0,1-22.45,30.55L303.6,319C311,311.86,318,301.79,323.38,291.1Zm158.9.37,6.08,13.78h31.1V313H445.61v-7.75h34.12L475.3,294.5Z" transform="translate(-26.03 -278.49)" style="fill:#4d4d4d"/><path id="Fill-29" d="M113,412a8,8,0,0,1-10.54-3.22l-.52-1.14L80.18,359.84a4.16,4.16,0,0,1-.38-1.68A4,4,0,0,1,86.17,355l25.69,18.29a11.86,11.86,0,0,0,10.62,1.22L243.29,320.7c-21.66-25.52-57.32-42.2-97.68-42.2-66,0-119.58,44.62-119.58,99.66,0,30,16.11,57.06,41.32,75.33A8,8,0,0,1,70.69,460a9.43,9.43,0,0,1-.42,2.54l-5.39,20.1a11.73,11.73,0,0,0-.64,2.91,4,4,0,0,0,4,4,4.5,4.5,0,0,0,2.3-.74l26.18-15.11a12.55,12.55,0,0,1,6.35-1.84,12,12,0,0,1,3.51.53,141.5,141.5,0,0,0,39,5.46c66,0,119.59-44.62,119.59-99.66A86.29,86.29,0,0,0,251.58,332l-137.69,79.5Z" transform="translate(-26.03 -278.49)" style="fill:#1aad19"/></g></g></g></svg>